<svg width="23" height="37" viewBox="0 0 23 37" fill="none" xmlns="http://www.w3.org/2000/svg">
<path d="M6.7085 24.2457C6.7085 23.5507 7.27191 22.9873 7.96692 22.9873V22.9873C8.66193 22.9873 9.22534 23.5507 9.22534 24.2457V35.2569C9.22534 35.9519 8.66193 36.5153 7.96692 36.5153V36.5153C7.27191 36.5153 6.7085 35.9519 6.7085 35.2569V24.2457Z" fill="white"/>
<rect x="0.416504" y="15.4368" width="2.51684" height="8.80896" rx="1.25842" fill="white"/>
<rect x="13.0005" y="22.9873" width="2.51684" height="10.6966" rx="1.25842" fill="white"/>
<rect x="6.7085" y="5.68408" width="2.51684" height="5.34829" rx="1.25842" fill="white"/>
<rect x="19.6074" y="13.8638" width="2.51684" height="8.49435" rx="1.25842" fill="white"/>
<rect x="19.4634" y="0.335693" width="2.51684" height="9.43817" rx="1.25842" fill="white"/>
<rect x="21.3896" y="6.9375" width="2.51684" height="23.1164" rx="1.25842" transform="rotate(67.7143 21.3896 6.9375)" fill="white"/>
<rect x="21.5435" y="13.4998" width="2.51684" height="23.2447" rx="1.25842" transform="rotate(67.7143 21.5435 13.4998)" fill="white"/>
<rect x="14.916" y="30.8809" width="2.72658" height="9.19576" rx="1.36329" transform="rotate(67.7143 14.916 30.8809)" fill="white"/>
<rect x="21.5693" y="19.7581" width="2.51684" height="9.65704" rx="1.25842" transform="rotate(67.7143 21.5693 19.7581)" fill="white"/>
<rect x="21.3677" width="2.51684" height="16.2536" rx="1.25842" transform="rotate(67.7143 21.3677 0)" fill="white"/>
</svg>
